<svg width="112" height="16" viewBox="0 0 112 16" fill="none" xmlns="http://www.w3.org/2000/svg">
<path d="M42.2279 5.31954C42.2279 8.16488 40.3972 10.3917 37.1019 10.3917H33.7252V14.6391C33.7252 15.3401 33.359 15.7112 32.6674 15.7112H31.2842C30.5926 15.7112 30.1858 15.3401 30.1858 14.6391V1.11337C30.1858 0.412346 30.5926 0.041214 31.2842 0.041214H37.1019C40.4378 0.041214 42.2279 2.47419 42.2279 5.31954ZM38.6885 5.31954C38.6885 3.99996 37.8748 3.05151 36.6137 3.05151H33.6845V7.58756H36.6137C37.8748 7.54633 38.6885 6.59788 38.6885 5.31954Z" fill="#1825AA"/>
<path d="M43.2463 9.97932C43.2463 6.59789 45.5246 3.95873 48.6978 3.95873C50.2031 3.95873 51.5456 4.53605 52.3593 5.85563V5.27831C52.3593 4.57729 52.7254 4.20615 53.417 4.20615H54.7189C55.4105 4.20615 55.7766 4.57729 55.7766 5.27831V14.6391C55.7766 15.3401 55.4105 15.7112 54.7189 15.7112H53.417C52.7254 15.7112 52.3593 15.3401 52.3593 14.6391V14.103C51.5456 15.3814 50.2031 15.9587 48.6978 15.9587C45.5246 15.9587 43.2463 13.3607 43.2463 9.97932ZM52.4406 9.97932C52.4406 8.12366 51.3015 6.76284 49.5522 6.76284C47.7621 6.76284 46.7044 8.20613 46.7044 9.97932C46.7044 11.7525 47.7621 13.1958 49.5522 13.1958C51.2608 13.1958 52.4406 11.7937 52.4406 9.97932Z" fill="#1825AA"/>
<path d="M58.5433 14.6391V5.27831C58.5433 4.57729 58.9095 4.20615 59.6011 4.20615H60.8216C61.5132 4.20615 61.8793 4.57729 61.8793 5.27831V6.7216C62.2455 4.61852 63.8321 3.95873 64.8085 3.95873L65.1746 3.99997C65.7035 4.04121 65.8255 4.45357 65.8255 4.90718V6.47418C65.8255 7.09274 65.5001 7.38139 65.0526 7.29892C64.8492 7.25768 64.6864 7.25768 64.483 7.25768C63.1405 7.25768 61.92 8.12366 61.92 11.0102V14.6391C61.92 15.3401 61.5539 15.7112 60.8623 15.7112H59.5604C58.9095 15.7112 58.5433 15.3401 58.5433 14.6391Z" fill="#1825AA"/>
<path d="M68.184 11.8763V6.76288H67.0449C66.6788 6.76288 66.4753 6.5567 66.4753 6.18556V4.74227C66.4753 4.37114 66.6788 4.16496 67.0449 4.16496H68.4281L68.7943 1.81445C68.8756 1.36085 69.2011 1.11343 69.6486 1.11343H70.747C71.2759 1.11343 71.52 1.40208 71.52 1.89693V4.16496H74.083C74.4492 4.16496 74.6526 4.37114 74.6526 4.74227V6.18556C74.6526 6.5567 74.4492 6.76288 74.083 6.76288H71.52V12C71.52 12.8659 71.9268 13.1958 72.4557 13.1958C73.0253 13.1958 73.3914 12.7422 73.3914 12.1237C73.3914 12 73.3914 11.8763 73.3507 11.7113C73.31 11.2989 73.4321 11.0928 73.7982 11.0928H75.1408C75.4255 11.0928 75.6696 11.2165 75.751 11.5464C75.8324 11.8763 75.8731 12.2474 75.8731 12.4123C75.8731 14.8865 74.1237 15.9175 72.0489 15.9175C70.2588 15.9587 68.184 15.0927 68.184 11.8763Z" fill="#1825AA"/>
<path d="M77.5823 14.6391V5.27834C77.5823 4.57731 77.9484 4.20618 78.64 4.20618H79.9419C80.6335 4.20618 80.9996 4.57731 80.9996 5.27834V6.0206C81.5692 4.70102 82.749 3.91752 84.4577 3.91752C87.5089 3.91752 88.6073 6.3505 88.6073 9.03089V14.5979C88.6073 15.2989 88.2005 15.67 87.5089 15.67H86.2477C85.5561 15.67 85.1899 15.2989 85.1899 14.5979V9.31955C85.1899 7.71131 84.5797 6.76286 83.3999 6.76286C82.2201 6.76286 80.9996 7.67008 80.9996 9.81439V14.5979C80.9996 15.2989 80.6335 15.67 79.9419 15.67H78.64C77.9484 15.7113 77.5823 15.3401 77.5823 14.6391Z" fill="#1825AA"/>
<path d="M90.4792 10.0206C90.4792 6.76284 92.8795 3.95873 96.7037 3.95873C99.9176 3.95873 102.603 5.9381 102.725 9.60819C102.765 10.268 102.318 10.5566 101.626 10.5566H93.6932C93.6525 11.9175 94.995 13.237 97.1919 13.237C98.0056 13.237 98.8599 13.0308 99.7142 12.536C100.324 12.2061 100.813 12.2473 101.219 12.7422L101.464 13.0721C101.911 13.6082 101.87 14.2267 101.26 14.6803C99.9583 15.6288 98.4124 15.9999 96.9885 15.9999C92.9609 15.9587 90.4792 13.3195 90.4792 10.0206ZM99.5515 8.6185C99.226 7.0515 97.9242 6.59789 96.7444 6.59789C95.5646 6.59789 94.1814 7.13397 93.8152 8.6185H99.5515Z" fill="#1825AA"/>
<path d="M104.718 14.6391V5.27831C104.718 4.57729 105.084 4.20615 105.776 4.20615H106.996C107.688 4.20615 108.054 4.57729 108.054 5.27831V6.7216C108.42 4.61852 110.007 3.95873 110.983 3.95873L111.349 3.99997C111.878 4.04121 112 4.45357 112 4.90718V6.47418C112 7.09274 111.675 7.38139 111.227 7.29892C111.024 7.25768 110.861 7.25768 110.658 7.25768C109.315 7.25768 108.095 8.12366 108.095 11.0102V14.6391C108.095 15.3401 107.728 15.7112 107.037 15.7112H105.776C105.084 15.7112 104.718 15.3401 104.718 14.6391Z" fill="#1825AA"/>
<path d="M13.2219 7.62884C12.4896 7.62884 11.8794 7.9175 11.3912 8.41234V4.4536H7.48562C7.97381 4.9072 8.25859 5.56699 8.25859 6.30926C8.25859 7.79379 7.03811 8.98966 5.57353 8.86595C4.27169 8.78347 3.21394 7.71131 3.17325 6.39173C3.13257 5.60823 3.45803 4.94844 3.94622 4.4536H0.366145C0.162731 4.4536 0 4.61855 0 4.82473V15.6288C0 15.835 0.162731 15.9999 0.366145 15.9999H11.3912V12.0412C11.8387 12.536 12.4896 12.8247 13.2219 12.8247C14.6458 12.8247 15.7849 11.6701 15.7849 10.2268C15.7442 8.78347 14.6051 7.62884 13.2219 7.62884Z" fill="#1825AA"/>
<path d="M22.4169 4.41235H18.8775C19.3657 3.95874 19.6504 3.29895 19.6504 2.55669C19.6504 1.15463 18.5113 0 17.0874 0C15.6635 0 14.5244 1.15463 14.5244 2.59792C14.5244 3.34019 14.8092 3.95874 15.2974 4.45358H11.3918V8.41233C11.8394 7.91748 12.4903 7.62883 13.2226 7.62883C14.6871 7.62883 15.8669 8.86593 15.7449 10.3505C15.6635 11.67 14.6058 12.7422 13.3039 12.7834C12.531 12.8247 11.88 12.4948 11.3918 11.9999V15.9587H22.4169C22.6203 15.9587 22.783 15.7937 22.783 15.5875V4.78348C22.783 4.5773 22.6203 4.41235 22.4169 4.41235Z" fill="#FF8B00"/>
</svg>
