<svg width="13" height="27" viewBox="0 0 13 27" fill="none" xmlns="http://www.w3.org/2000/svg">
<path fill-rule="evenodd" clip-rule="evenodd" d="M6.52927 17.1257C6.92814 17.1257 7.25149 17.449 7.25149 17.8479V21.7509C7.25149 22.1497 6.92814 22.4731 6.52927 22.4731C6.1304 22.4731 5.80705 22.1497 5.80705 21.7509V17.8479C5.80705 17.449 6.1304 17.1257 6.52927 17.1257Z" fill="white"/>
<path fill-rule="evenodd" clip-rule="evenodd" d="M6.52927 0.436279C6.92814 0.436279 7.25149 0.759627 7.25149 1.1585V2.12038C7.25149 2.51925 6.92814 2.84259 6.52927 2.84259C6.1304 2.84259 5.80705 2.51925 5.80705 2.12038V1.1585C5.80705 0.759627 6.1304 0.436279 6.52927 0.436279Z" fill="white"/>
<path fill-rule="evenodd" clip-rule="evenodd" d="M2.11183 20.7335C2.11183 20.3346 2.43518 20.0113 2.83405 20.0113H10.1661C10.565 20.0113 10.8883 20.3346 10.8883 20.7335C10.8883 21.1323 10.565 21.4557 10.1661 21.4557H2.83405C2.43518 21.4557 2.11183 21.1323 2.11183 20.7335Z" fill="white"/>
<path fill-rule="evenodd" clip-rule="evenodd" d="M8.93875 16.0885C9.31677 15.9612 9.7264 16.1645 9.85368 16.5425L12.8451 25.4269C12.9723 25.8049 12.7691 26.2145 12.3911 26.3418C12.013 26.4691 11.6034 26.2658 11.4761 25.8878L8.48474 17.0034C8.35746 16.6254 8.56073 16.2158 8.93875 16.0885Z" fill="white"/>
<path fill-rule="evenodd" clip-rule="evenodd" d="M4.06117 16.145C4.43919 16.2723 4.64245 16.6819 4.51518 17.0599L1.52379 25.9443C1.39651 26.3223 0.986883 26.5256 0.608862 26.3983C0.230842 26.271 0.0275763 25.8614 0.154855 25.4834L3.14624 16.599C3.27352 16.221 3.68315 16.0177 4.06117 16.145Z" fill="white"/>
<path fill-rule="evenodd" clip-rule="evenodd" d="M0.586806 3.36473C0.586806 2.96586 0.910155 2.64252 1.30903 2.64252H11.6916C12.0904 2.64252 12.4138 2.96586 12.4138 3.36473V15.5282C12.4138 15.927 12.0904 16.2504 11.6916 16.2504H1.30903C0.910155 16.2504 0.586806 15.927 0.586806 15.5282V3.36473ZM2.03125 4.08695V14.8059H10.9693V4.08695H2.03125Z" fill="white"/>
<path fill-rule="evenodd" clip-rule="evenodd" d="M0 15.5851C0 15.1863 0.32335 14.8629 0.722222 14.8629H12.2778C12.6766 14.8629 13 15.1863 13 15.5851V16.773C13 17.1718 12.6766 17.4952 12.2778 17.4952H0.722222C0.32335 17.4952 0 17.1718 0 16.773V15.5851Z" fill="white"/>
<path fill-rule="evenodd" clip-rule="evenodd" d="M3.93008 16.773C3.93008 16.3741 4.25343 16.0508 4.6523 16.0508H8.34761C8.74648 16.0508 9.06983 16.3741 9.06983 16.773V17.6784C9.06983 18.0773 8.74648 18.4006 8.34761 18.4006H4.6523C4.25343 18.4006 3.93008 18.0773 3.93008 17.6784V16.773Z" fill="white"/>
<path fill-rule="evenodd" clip-rule="evenodd" d="M3.93008 2.23336C3.93008 1.83449 4.25343 1.51114 4.6523 1.51114H8.34761C8.74648 1.51114 9.06983 1.83449 9.06983 2.23336V3.13875C9.06983 3.53762 8.74648 3.86097 8.34761 3.86097H4.6523C4.25343 3.86097 3.93008 3.53762 3.93008 3.13875V2.23336Z" fill="white"/>
</svg>
