<svg width="27" height="26" viewBox="0 0 27 26" fill="none" xmlns="http://www.w3.org/2000/svg">
<path fill-rule="evenodd" clip-rule="evenodd" d="M12.57 24.2499C16.8699 24.2499 20.3766 20.7321 20.3766 16.3665C20.3766 12.0009 16.8699 8.48306 12.57 8.48306C8.27019 8.48306 4.76346 12.0009 4.76346 16.3665C4.76346 20.7321 8.27019 24.2499 12.57 24.2499ZM21.8766 16.3665C21.8766 21.5488 17.7099 25.7499 12.57 25.7499C7.43015 25.7499 3.26346 21.5488 3.26346 16.3665C3.26346 11.1842 7.43015 6.98306 12.57 6.98306C17.7099 6.98306 21.8766 11.1842 21.8766 16.3665Z" fill="white"/>
<path fill-rule="evenodd" clip-rule="evenodd" d="M12.5701 0C12.9843 0 13.3201 0.335786 13.3201 0.75V6.64045C13.3201 7.05466 12.9843 7.39045 12.5701 7.39045C12.1559 7.39045 11.8201 7.05466 11.8201 6.64045V0.75C11.8201 0.335786 12.1559 0 12.5701 0Z" fill="white"/>
<path fill-rule="evenodd" clip-rule="evenodd" d="M18.6849 18.6271V20.9562H16.3749V18.6271H18.6849Z" fill="white"/>
<path fill-rule="evenodd" clip-rule="evenodd" d="M16.375 20.9556V23.2847H14.065V20.9556H16.375Z" fill="white"/>
<path fill-rule="evenodd" clip-rule="evenodd" d="M14.0655 18.6271V20.9562H11.7555V18.6271H14.0655Z" fill="white"/>
<path fill-rule="evenodd" clip-rule="evenodd" d="M10.125 10.9553V13.2843H7.815V10.9553H10.125Z" fill="white"/>
<path fill-rule="evenodd" clip-rule="evenodd" d="M16.375 16.2981V18.6271H14.065V16.2981H16.375Z" fill="white"/>
<path fill-rule="evenodd" clip-rule="evenodd" d="M18.6849 13.9696V16.2986H16.3749V13.9696H18.6849Z" fill="white"/>
<path fill-rule="evenodd" clip-rule="evenodd" d="M24.5944 8.28784C25.0086 8.28784 25.3444 8.62363 25.3444 9.03784V11.4353C25.3444 11.8495 25.0086 12.1853 24.5944 12.1853C24.1802 12.1853 23.8444 11.8495 23.8444 11.4353V9.03784C23.8444 8.62363 24.1802 8.28784 24.5944 8.28784Z" fill="white"/>
<path fill-rule="evenodd" clip-rule="evenodd" d="M22.6221 10.2024C22.6221 9.78821 22.9579 9.45242 23.3721 9.45242H25.7499C26.1641 9.45242 26.4999 9.78821 26.4999 10.2024C26.4999 10.6166 26.1641 10.9524 25.7499 10.9524H23.3721C22.9579 10.9524 22.6221 10.6166 22.6221 10.2024Z" fill="white"/>
<path fill-rule="evenodd" clip-rule="evenodd" d="M19.4316 2.39749C19.8458 2.39749 20.1816 2.73328 20.1816 3.14749V5.54496C20.1816 5.95917 19.8458 6.29496 19.4316 6.29496C19.0174 6.29496 18.6816 5.95917 18.6816 5.54496V3.14749C18.6816 2.73328 19.0174 2.39749 19.4316 2.39749Z" fill="white"/>
<path fill-rule="evenodd" clip-rule="evenodd" d="M17.4588 4.3804C17.4588 3.96619 17.7946 3.6304 18.2088 3.6304H20.5866C21.0008 3.6304 21.3366 3.96619 21.3366 4.3804C21.3366 4.79462 21.0008 5.1304 20.5866 5.1304H18.2088C17.7946 5.1304 17.4588 4.79462 17.4588 4.3804Z" fill="white"/>
<path fill-rule="evenodd" clip-rule="evenodd" d="M1.97256 6.98663C2.38678 6.98663 2.72256 7.32242 2.72256 7.73663V10.1341C2.72256 10.5483 2.38678 10.8841 1.97256 10.8841C1.55835 10.8841 1.22256 10.5483 1.22256 10.1341V7.73663C1.22256 7.32242 1.55835 6.98663 1.97256 6.98663Z" fill="white"/>
<path fill-rule="evenodd" clip-rule="evenodd" d="M0 8.90051C0 8.4863 0.335786 8.15051 0.75 8.15051H3.12782C3.54204 8.15051 3.87782 8.4863 3.87782 8.90051C3.87782 9.31473 3.54204 9.65051 3.12782 9.65051H0.75C0.335786 9.65051 0 9.31473 0 8.90051Z" fill="white"/>
</svg>
