<svg width="19" height="19" viewBox="0 0 19 19" fill="none" xmlns="http://www.w3.org/2000/svg">
<path fill-rule="evenodd" clip-rule="evenodd" d="M1.72162 1.73097V6.26997H6.23607V1.73097H1.72162ZM1.14774 0C0.513862 0 0 0.516656 0 1.15398V6.84696C0 7.48429 0.513862 8.00095 1.14774 8.00095H6.80995C7.44383 8.00095 7.95769 7.48429 7.95769 6.84696V1.15398C7.95769 0.516656 7.44383 0 6.80995 0H1.14774Z" fill="white" fill-opacity="0.5"/>
<path fill-rule="evenodd" clip-rule="evenodd" d="M12.1279 1.73097V6.26997H16.6423V1.73097H12.1279ZM11.554 0C10.9201 0 10.4062 0.516656 10.4062 1.15398V6.84696C10.4062 7.48429 10.9201 8.00095 11.554 8.00095H17.2162C17.8501 8.00095 18.3639 7.48429 18.3639 6.84696V1.15398C18.3639 0.516656 17.8501 0 17.2162 0H11.554Z" fill="white" fill-opacity="0.5"/>
<path fill-rule="evenodd" clip-rule="evenodd" d="M1.72162 12.1937V16.7327H6.23607V12.1937H1.72162ZM1.14774 10.4628C0.513862 10.4628 0 10.9794 0 11.6168V17.3097C0 17.9471 0.513862 18.4637 1.14774 18.4637H6.80995C7.44383 18.4637 7.95769 17.9471 7.95769 17.3097V11.6168C7.95769 10.9794 7.44383 10.4628 6.80995 10.4628H1.14774Z" fill="white" fill-opacity="0.5"/>
<path fill-rule="evenodd" clip-rule="evenodd" d="M12.1279 12.1937V16.7327H16.6423V12.1937H12.1279ZM11.554 10.4628C10.9201 10.4628 10.4062 10.9794 10.4062 11.6168V17.3097C10.4062 17.9471 10.9201 18.4637 11.554 18.4637H17.2162C17.8501 18.4637 18.3639 17.9471 18.3639 17.3097V11.6168C18.3639 10.9794 17.8501 10.4628 17.2162 10.4628H11.554Z" fill="white" fill-opacity="0.5"/>
</svg>
