<svg width="24" height="29" viewBox="0 0 24 29" fill="none" xmlns="http://www.w3.org/2000/svg">
<path fill-rule="evenodd" clip-rule="evenodd" d="M6.78002 5.54436C6.95846 5.45809 7.16544 5.44367 7.35503 5.50429L12.3075 7.08803C12.6976 7.21281 12.9102 7.61559 12.7839 7.99087L10.0949 15.9812L9.38231 15.7568C10.0949 15.9812 10.095 15.9808 10.0949 15.9812L10.0944 15.9826L10.0938 15.9842L10.0924 15.9882L10.0886 15.9988C10.0856 16.0071 10.0817 16.0178 10.0768 16.0306C10.0671 16.0563 10.0535 16.0907 10.0358 16.1325C10.0004 16.2158 9.94826 16.3295 9.87722 16.4613C9.73691 16.7216 9.51381 17.0696 9.18686 17.3932C8.85801 17.7186 8.40991 18.0328 7.82551 18.1914C7.23399 18.3521 6.55866 18.338 5.81021 18.0883C5.06154 17.8386 4.52074 17.4469 4.15444 16.9716C3.79253 16.5021 3.63124 15.9907 3.57044 15.539C3.50995 15.0895 3.54624 14.6815 3.59468 14.391C3.61918 14.2441 3.64756 14.1227 3.67067 14.0355C3.68225 13.9918 3.6926 13.9563 3.70061 13.9301C3.70462 13.917 3.70805 13.9062 3.71077 13.8978L3.71431 13.887L3.71565 13.8831L3.71608 13.8818L3.71645 13.8807L6.40456 5.9638C6.46642 5.78161 6.60157 5.63063 6.78002 5.54436ZM8.67053 15.5302L11.1284 8.22688L7.59703 7.0976L5.14308 14.3248L5.13998 14.3347C5.13676 14.3452 5.13129 14.3638 5.12449 14.3894C5.11084 14.441 5.09224 14.5197 5.07583 14.6181C5.04246 14.8182 5.02127 15.0815 5.05808 15.355C5.09458 15.6262 5.18538 15.8894 5.36079 16.117C5.53182 16.3389 5.81359 16.5669 6.30319 16.7302C6.79301 16.8936 7.15251 16.8796 7.41672 16.8079C7.68805 16.7342 7.91656 16.5836 8.10955 16.3926C8.30443 16.1997 8.44838 15.9797 8.54466 15.8011C8.59192 15.7134 8.62542 15.64 8.64621 15.591C8.65656 15.5666 8.6636 15.5486 8.6675 15.5383L8.67053 15.5302Z" fill="white"/>
<path fill-rule="evenodd" clip-rule="evenodd" d="M6.29056 16.7949C6.68409 16.9188 6.89834 17.3251 6.7691 17.7024L3.79739 26.3779C3.66815 26.7551 3.24437 26.9605 2.85084 26.8366C2.45732 26.7127 2.24306 26.3065 2.3723 25.9292L5.34401 17.2537C5.47325 16.8764 5.89703 16.671 6.29056 16.7949Z" fill="white"/>
<path fill-rule="evenodd" clip-rule="evenodd" d="M0.0397756 25.1656C0.172543 24.7894 0.598234 24.5877 0.990584 24.715L5.66043 26.2299C6.05277 26.3572 6.26321 26.7653 6.13044 27.1415C5.99767 27.5176 5.57198 27.7194 5.17963 27.5921L0.509791 26.0771C0.117442 25.9498 -0.0929916 25.5417 0.0397756 25.1656Z" fill="white"/>
<path fill-rule="evenodd" clip-rule="evenodd" d="M17.149 6.57682C17.3275 6.66308 17.4626 6.81405 17.5245 6.99622L20.2133 14.9131L20.2135 14.9139L20.2141 14.9155L20.2154 14.9195L20.2189 14.9303C20.2217 14.9386 20.2251 14.9494 20.2291 14.9625C20.2371 14.9887 20.2475 15.0242 20.259 15.068C20.2821 15.1552 20.3105 15.2766 20.335 15.4235C20.3835 15.714 20.4198 16.122 20.3593 16.5715C20.2985 17.0232 20.1372 17.5345 19.7753 18.0041C19.409 18.4793 18.8682 18.871 18.1195 19.1208C17.371 19.3705 16.6957 19.3845 16.1042 19.2239C15.5198 19.0652 15.0717 18.7511 14.7428 18.4257C14.4159 18.1021 14.1928 17.7541 14.0525 17.4938C13.9814 17.362 13.9293 17.2482 13.8939 17.1649C13.8762 17.1232 13.8626 17.0887 13.8529 17.0631C13.848 17.0503 13.8441 17.0396 13.8411 17.0313L13.8373 17.0206L13.8359 17.0167L13.8353 17.015L13.8351 17.0143C13.835 17.014 13.8349 17.0136 14.5474 16.7893L13.8351 17.0143L13.8337 17.0101L11.1452 9.02339C11.0188 8.6481 11.2314 8.24528 11.6216 8.1205L16.574 6.53676C16.7636 6.47614 16.9706 6.49056 17.149 6.57682ZM12.8007 9.25934L15.2592 16.5626L15.2622 16.5708C15.2661 16.581 15.2731 16.599 15.2835 16.6234C15.3043 16.6724 15.3378 16.7459 15.385 16.8336C15.4813 17.0122 15.6253 17.2322 15.8202 17.4251C16.0131 17.616 16.2417 17.7666 16.513 17.8403C16.7772 17.9121 17.1367 17.9261 17.6265 17.7627C18.1161 17.5993 18.3979 17.3714 18.5689 17.1495C18.7443 16.9219 18.8351 16.6587 18.8716 16.3874C18.9084 16.1139 18.8872 15.8507 18.8539 15.6505C18.8375 15.5521 18.8189 15.4734 18.8052 15.4219C18.7984 15.3962 18.7929 15.3777 18.7897 15.3672L18.7868 15.3578L16.3321 8.13005L12.8007 9.25934Z" fill="white"/>
<path fill-rule="evenodd" clip-rule="evenodd" d="M17.6387 17.8274C18.0323 17.7035 18.4561 17.9089 18.5853 18.2862L21.557 26.9617C21.6862 27.3389 21.472 27.7452 21.0785 27.8691C20.6849 27.993 20.2612 27.7876 20.1319 27.4103L17.1602 18.7349C17.031 18.3576 17.2452 17.9513 17.6387 17.8274Z" fill="white"/>
<path fill-rule="evenodd" clip-rule="evenodd" d="M23.9614 26.2011C24.0923 26.5779 23.88 26.9851 23.487 27.1106L18.7465 28.6256C18.3536 28.7512 17.9289 28.5476 17.7979 28.1709C17.6669 27.7942 17.8793 27.387 18.2722 27.2614L23.0127 25.7464C23.4056 25.6208 23.8304 25.8244 23.9614 26.2011Z" fill="white"/>
<path fill-rule="evenodd" clip-rule="evenodd" d="M9.57849 2.02419C9.57139 2.0311 9.56622 2.04088 9.56622 2.0552C9.56622 2.06952 9.57139 2.07931 9.57849 2.08621C9.58212 2.08975 9.58543 2.0916 9.58753 2.09247C9.58909 2.09311 9.59097 2.09368 9.59465 2.09368C9.59834 2.09368 9.60021 2.09311 9.60177 2.09247C9.60388 2.0916 9.60719 2.08975 9.61081 2.08621C9.61791 2.07931 9.62308 2.06952 9.62308 2.0552C9.62308 2.04088 9.61791 2.0311 9.61081 2.02419C9.60719 2.02066 9.60388 2.01881 9.60177 2.01794C9.60021 2.0173 9.59834 2.01673 9.59465 2.01673C9.59097 2.01673 9.58909 2.0173 9.58753 2.01794C9.58543 2.01881 9.58212 2.02066 9.57849 2.02419ZM8.06625 2.0552C8.06625 1.24991 8.74003 0.578705 9.59465 0.578705C10.4493 0.578705 11.123 1.24991 11.123 2.0552C11.123 2.8605 10.4493 3.5317 9.59465 3.5317C8.74003 3.5317 8.06625 2.8605 8.06625 2.0552Z" fill="white"/>
<path fill-rule="evenodd" clip-rule="evenodd" d="M12.6372 4.63297C12.8274 4.63297 12.9626 4.48587 12.9626 4.32708C12.9626 4.16829 12.8274 4.02118 12.6372 4.02118C12.4469 4.02118 12.3117 4.16829 12.3117 4.32708C12.3117 4.48587 12.4469 4.63297 12.6372 4.63297ZM11.4626 4.32708C11.4626 3.71197 11.978 3.19495 12.6372 3.19495C13.2963 3.19495 13.8117 3.71197 13.8117 4.32708C13.8117 4.94218 13.2963 5.45921 12.6372 5.45921C11.978 5.45921 11.4626 4.94218 11.4626 4.32708Z" fill="white"/>
<path fill-rule="evenodd" clip-rule="evenodd" d="M14.2638 2.91172C14.376 2.91172 14.4479 2.82617 14.4479 2.74332C14.4479 2.66047 14.376 2.57492 14.2638 2.57492C14.1516 2.57492 14.0796 2.66047 14.0796 2.74332C14.0796 2.82617 14.1516 2.91172 14.2638 2.91172ZM12.948 2.74332C12.948 2.05228 13.5266 1.47369 14.2638 1.47369C15.001 1.47369 15.5796 2.05228 15.5796 2.74332C15.5796 3.43437 15.001 4.01295 14.2638 4.01295C13.5266 4.01295 12.948 3.43437 12.948 2.74332Z" fill="white"/>
</svg>
