<svg width="21" height="17" viewBox="0 0 21 17" fill="none" xmlns="http://www.w3.org/2000/svg">
<path fill-rule="evenodd" clip-rule="evenodd" d="M5 1C5 0.447715 5.44772 0 6 0C6.55228 0 7 0.447715 7 1V2H14V1C14 0.447715 14.4477 0 15 0C15.5523 0 16 0.447715 16 1V2H18C19.6569 2 21 3.34315 21 5V14C21 15.6569 19.6569 17 18 17H3C1.34315 17 0 15.6569 0 14V5C0 3.34315 1.34315 2 3 2H5V1ZM14 4V5C14 5.55228 14.4477 6 15 6C15.5523 6 16 5.55228 16 5V4H18C18.5523 4 19 4.44772 19 5V14C19 14.5523 18.5523 15 18 15H3C2.44772 15 2 14.5523 2 14V5C2 4.44772 2.44772 4 3 4H5V5C5 5.55228 5.44772 6 6 6C6.55228 6 7 5.55228 7 5V4H14Z" fill="white" fill-opacity="0.5"/>
</svg>
