<svg width="17" height="24" viewBox="0 0 17 24" fill="none" xmlns="http://www.w3.org/2000/svg">
<path fill-rule="evenodd" clip-rule="evenodd" d="M7.53483 22.8886C7.67038 23.1628 7.95165 23.3514 8.27631 23.3514C8.60091 23.3514 8.88194 23.1627 9.01744 22.8886L15.2219 12.8973H15.2072C15.2087 12.8951 15.2101 12.8928 15.2115 12.8906C15.215 12.8853 15.2185 12.8799 15.2219 12.8746C15.6043 12.2812 15.914 11.6359 16.138 10.9513C16.407 10.1296 16.5526 9.25149 16.5526 8.33907C16.5526 3.73344 12.8472 0 8.27631 0C3.70534 0 0 3.73344 0 8.33907C0 9.25149 0.145595 10.1297 0.414531 10.9513C0.638596 11.6359 0.948277 12.2813 1.3307 12.8747C1.33414 12.88 1.33758 12.8853 1.34103 12.8906C1.34247 12.8928 1.34391 12.8951 1.34535 12.8973H1.3307L7.53483 22.8886ZM4.7991 14.8432H4.8983L2.93838 11.8238C2.28733 10.8209 1.90991 9.62631 1.90991 8.33907C1.90991 4.82853 4.74004 1.94595 8.27631 1.94595C11.8125 1.94595 14.6427 4.82852 14.6427 8.33907C14.6427 9.62633 14.2653 10.8208 13.6142 11.8238L11.6542 14.8432H11.7534L8.27616 20.4428L4.7991 14.8432Z" fill="white" fill-opacity="0.5"/>
<path d="M11.0351 8.49148C11.0351 10.0547 9.79996 11.322 8.27634 11.322C6.75272 11.322 5.51758 10.0547 5.51758 8.49148C5.51758 6.92826 6.75272 5.66101 8.27634 5.66101C9.79996 5.66101 11.0351 6.92826 11.0351 8.49148Z" fill="white" fill-opacity="0.5"/>
</svg>
