<svg width="20" height="18" viewBox="0 0 20 18" fill="none" xmlns="http://www.w3.org/2000/svg">
<path fill-rule="evenodd" clip-rule="evenodd" d="M17.7948 3.93966V7.72172C18.4896 8.26881 19.0486 8.96062 19.4303 9.74586C19.8121 10.5311 20.0068 11.3897 20 12.2579C19.9933 13.1261 19.7853 13.9817 19.3914 14.7613C18.9975 15.5408 18.4279 16.2244 17.7247 16.7613C17.0215 17.2982 16.2028 17.6746 15.3292 17.8626C14.4557 18.0507 13.5498 18.0456 12.6786 17.8476C11.8074 17.6497 10.9933 17.2641 10.2966 16.7193C9.59987 16.1745 9.03847 15.4845 8.65397 14.7005H2.66835C1.96075 14.7005 1.28213 14.4278 0.781786 13.9423C0.281438 13.4567 0.000345021 12.7982 0.000345021 12.1116V3.93966C-0.0027187 3.59778 0.0640296 3.25871 0.196737 2.94201C0.329445 2.6253 0.525483 2.33724 0.773536 2.09444C1.02159 1.85165 1.31674 1.65894 1.64196 1.52743C1.96718 1.39592 2.31602 1.32821 2.66835 1.32823H3.87476V0.787931C3.87476 0.578959 3.96031 0.378545 4.11259 0.23078C4.26487 0.0830139 4.4714 0 4.68676 0C4.90211 0 5.10865 0.0830139 5.26093 0.23078C5.41321 0.378545 5.49876 0.578959 5.49876 0.787931V1.32823H12.2964V0.787931C12.2964 0.578959 12.3819 0.378545 12.5342 0.23078C12.6865 0.0830139 12.893 0 13.1084 0C13.3237 0 13.5303 0.0830139 13.6826 0.23078C13.8348 0.378545 13.9204 0.578959 13.9204 0.787931V1.35074H15.1268C15.8344 1.35074 16.513 1.6235 17.0134 2.10902C17.5137 2.59453 17.7948 3.25303 17.7948 3.93966ZM1.93013 12.8505C2.12592 13.0405 2.39147 13.1472 2.66835 13.1472L8.16677 13.1247C8.00566 12.1243 8.11791 11.1004 8.49232 10.1554C8.86672 9.21028 9.49017 8.37709 10.3004 7.73904C11.1105 7.10099 12.0791 6.68042 13.1093 6.51936C14.1394 6.35831 15.1951 6.4624 16.1708 6.82123V3.93966C16.1708 3.67098 16.0608 3.4133 15.865 3.22332C15.6692 3.03333 15.4037 2.9266 15.1268 2.9266H13.9204V3.24177C13.9204 3.45075 13.8348 3.65116 13.6826 3.79893C13.5303 3.94669 13.3237 4.0297 13.1084 4.0297C12.893 4.0297 12.6865 3.94669 12.5342 3.79893C12.3819 3.65116 12.2964 3.45075 12.2964 3.24177V2.9266H5.49876V3.24177C5.49876 3.45075 5.41321 3.65116 5.26093 3.79893C5.10865 3.94669 4.90211 4.0297 4.68676 4.0297C4.4714 4.0297 4.26487 3.94669 4.11259 3.79893C3.96031 3.65116 3.87476 3.45075 3.87476 3.24177V2.9266H2.66835C2.39147 2.9266 2.12592 3.03333 1.93013 3.22332C1.73434 3.4133 1.62435 3.67098 1.62435 3.93966V12.1341C1.62435 12.4028 1.73434 12.6605 1.93013 12.8505ZM11.6581 15.7602C12.3679 16.2244 13.2035 16.4746 14.0596 16.479C14.6324 16.479 15.1995 16.3695 15.7287 16.1569C16.2579 15.9442 16.7387 15.6324 17.1437 15.2394C17.5487 14.8464 17.87 14.3798 18.0892 13.8663C18.3084 13.3528 18.4212 12.8025 18.4212 12.2467C18.4166 11.416 18.1588 10.6052 17.6804 9.91637C17.2019 9.22754 16.5241 8.69145 15.7323 8.37562C14.9405 8.05978 14.0702 7.97831 13.2308 8.14146C12.3914 8.30462 11.6205 8.7051 11.0151 9.29249C10.4098 9.87988 9.99707 10.6279 9.82893 11.4424C9.6608 12.257 9.74475 13.1015 10.0702 13.8699C10.3957 14.6382 10.9482 15.2959 11.6581 15.7602ZM14.6165 11.864H15.9621H15.9853C16.2007 11.864 16.4072 11.9471 16.5595 12.0948C16.7118 12.2426 16.7973 12.443 16.7973 12.652C16.7973 12.8609 16.7118 13.0614 16.5595 13.2091C16.4072 13.3569 16.2007 13.4399 15.9853 13.4399H13.8045C13.5892 13.4399 13.3826 13.3569 13.2303 13.2091C13.0781 13.0614 12.9925 12.8609 12.9925 12.652V9.88295C12.9925 9.67398 13.0781 9.47357 13.2303 9.3258C13.3826 9.17804 13.5892 9.09502 13.8045 9.09502C14.0199 9.09502 14.2264 9.17804 14.3787 9.3258C14.531 9.47357 14.6165 9.67398 14.6165 9.88295V11.864Z" fill="#FF8300"/>
</svg>
