<svg width="24" height="24" viewBox="0 0 24 24" fill="none" xmlns="http://www.w3.org/2000/svg">
<path fill-rule="evenodd" clip-rule="evenodd" d="M19.7948 6.93966V10.7217C20.4896 11.2688 21.0486 11.9606 21.4303 12.7459C21.8121 13.5311 22.0068 14.3897 22 15.2579C21.9933 16.1261 21.7853 16.9817 21.3914 17.7613C20.9975 18.5408 20.4279 19.2244 19.7247 19.7613C19.0215 20.2982 18.2028 20.6746 17.3292 20.8626C16.4557 21.0507 15.5498 21.0456 14.6786 20.8476C13.8074 20.6497 12.9933 20.2641 12.2966 19.7193C11.5999 19.1745 11.0385 18.4845 10.654 17.7005H4.66835C3.96075 17.7005 3.28213 17.4278 2.78179 16.9423C2.28144 16.4567 2.00035 15.7982 2.00035 15.1116V6.93966C1.99728 6.59778 2.06403 6.25871 2.19674 5.94201C2.32944 5.6253 2.52548 5.33724 2.77354 5.09444C3.02159 4.85165 3.31674 4.65894 3.64196 4.52743C3.96718 4.39592 4.31602 4.32821 4.66835 4.32823H5.87476V3.78793C5.87476 3.57896 5.96031 3.37855 6.11259 3.23078C6.26487 3.08301 6.4714 3 6.68676 3C6.90211 3 7.10865 3.08301 7.26093 3.23078C7.41321 3.37855 7.49876 3.57896 7.49876 3.78793V4.32823H14.2964V3.78793C14.2964 3.57896 14.3819 3.37855 14.5342 3.23078C14.6865 3.08301 14.893 3 15.1084 3C15.3237 3 15.5303 3.08301 15.6826 3.23078C15.8348 3.37855 15.9204 3.57896 15.9204 3.78793V4.35074H17.1268C17.8344 4.35074 18.513 4.6235 19.0134 5.10902C19.5137 5.59453 19.7948 6.25303 19.7948 6.93966ZM3.93013 15.8505C4.12592 16.0405 4.39147 16.1472 4.66835 16.1472L10.1668 16.1247C10.0057 15.1243 10.1179 14.1004 10.4923 13.1554C10.8667 12.2103 11.4902 11.3771 12.3004 10.739C13.1105 10.101 14.0791 9.68042 15.1093 9.51936C16.1394 9.35831 17.1951 9.4624 18.1708 9.82123V6.93966C18.1708 6.67098 18.0608 6.4133 17.865 6.22332C17.6692 6.03333 17.4037 5.9266 17.1268 5.9266H15.9204V6.24177C15.9204 6.45075 15.8348 6.65116 15.6826 6.79893C15.5303 6.94669 15.3237 7.0297 15.1084 7.0297C14.893 7.0297 14.6865 6.94669 14.5342 6.79893C14.3819 6.65116 14.2964 6.45075 14.2964 6.24177V5.9266H7.49876V6.24177C7.49876 6.45075 7.41321 6.65116 7.26093 6.79893C7.10865 6.94669 6.90211 7.0297 6.68676 7.0297C6.4714 7.0297 6.26487 6.94669 6.11259 6.79893C5.96031 6.65116 5.87476 6.45075 5.87476 6.24177V5.9266H4.66835C4.39147 5.9266 4.12592 6.03333 3.93013 6.22332C3.73434 6.4133 3.62435 6.67098 3.62435 6.93966V15.1341C3.62435 15.4028 3.73434 15.6605 3.93013 15.8505ZM13.6581 18.7602C14.3679 19.2244 15.2035 19.4746 16.0596 19.479C16.6324 19.479 17.1995 19.3695 17.7287 19.1569C18.2579 18.9442 18.7387 18.6324 19.1437 18.2394C19.5487 17.8464 19.87 17.3798 20.0892 16.8663C20.3084 16.3528 20.4212 15.8025 20.4212 15.2467C20.4166 14.416 20.1588 13.6052 19.6804 12.9164C19.2019 12.2275 18.5241 11.6915 17.7323 11.3756C16.9405 11.0598 16.0702 10.9783 15.2308 11.1415C14.3914 11.3046 13.6205 11.7051 13.0151 12.2925C12.4098 12.8799 11.9971 13.6279 11.8289 14.4424C11.6608 15.257 11.7448 16.1015 12.0702 16.8699C12.3957 17.6382 12.9482 18.2959 13.6581 18.7602ZM16.6165 14.864H17.9621H17.9853C18.2007 14.864 18.4072 14.9471 18.5595 15.0948C18.7118 15.2426 18.7973 15.443 18.7973 15.652C18.7973 15.8609 18.7118 16.0614 18.5595 16.2091C18.4072 16.3569 18.2007 16.4399 17.9853 16.4399H15.8045C15.5892 16.4399 15.3826 16.3569 15.2303 16.2091C15.0781 16.0614 14.9925 15.8609 14.9925 15.652V12.883C14.9925 12.674 15.0781 12.4736 15.2303 12.3258C15.3826 12.178 15.5892 12.095 15.8045 12.095C16.0199 12.095 16.2264 12.178 16.3787 12.3258C16.531 12.4736 16.6165 12.674 16.6165 12.883V14.864Z" fill="#FF8300"/>
</svg>
