<svg width="178" height="31" viewBox="0 0 178 31" fill="none" xmlns="http://www.w3.org/2000/svg">
<path d="M40.4394 28.1196L50.4961 1.65621C50.887 0.576074 51.7043 0 52.9125 0H55.9686C57.1768 0 57.9586 0.576074 58.385 1.65621L68.5839 28.1196C69.1169 29.5598 68.5128 30.5319 66.9492 30.5319H64.1419C62.9692 30.5319 62.1519 29.9918 61.7254 28.8757L60.2329 24.8432H48.6127L47.1557 28.8037C46.7292 29.9198 45.9475 30.4959 44.7748 30.4959H42.074C40.5105 30.5319 39.9063 29.5598 40.4394 28.1196ZM58.847 19.4065L54.4406 7.12892L49.9275 19.4065H58.847Z" fill="#FF8300"/>
<path d="M71.3199 26.4994C70.6803 25.2033 71.3555 24.2311 72.7058 23.8711L74.0562 23.5831C75.2289 23.295 75.7264 23.8351 76.6503 24.7712C77.4321 25.6353 78.5693 26.0674 79.9552 26.0674C81.6254 26.0674 82.798 25.2753 82.798 24.1231C82.798 23.151 82.1584 22.6829 80.737 22.1789L78.0362 21.2068C75.7619 20.4507 71.7819 18.7584 71.7819 14.7259C71.7819 10.5494 75.2289 7.66901 79.9907 7.66901C82.8336 7.66901 85.4277 8.56913 87.0624 11.0534C87.9152 12.3136 87.2756 13.4658 85.8541 13.7898L84.6459 14.0778C83.5443 14.3659 82.9402 14.0058 82.1584 13.2497C81.5543 12.6377 80.7725 12.4216 79.9907 12.4216C78.6048 12.4216 77.7519 13.2857 77.7519 14.3299C77.7519 15.302 78.6048 15.7701 79.7775 16.1661L82.5138 17.2102C87.0624 18.7224 88.697 21.2068 88.8036 23.9791C88.8036 28.6957 84.6815 31 79.8841 31C75.9751 31 72.7769 29.5238 71.3199 26.4994Z" fill="#FF8300"/>
<path d="M91.7892 19.2985C91.7892 12.7097 96.2312 7.63301 102.414 7.63301C105.328 7.63301 107.923 8.74915 109.522 11.3055V10.2253C109.522 8.85717 110.268 8.13708 111.583 8.13708H114.106C115.456 8.13708 116.167 8.89317 116.167 10.2253V28.4437C116.167 29.8119 115.421 30.532 114.106 30.532H111.583C110.232 30.532 109.522 29.7759 109.522 28.4437V27.3635C107.923 29.8479 105.364 30.964 102.414 30.964C96.2312 31 91.7892 25.9234 91.7892 19.2985ZM109.628 19.2985C109.628 15.7341 107.39 13.0337 103.978 13.0337C100.496 13.0337 98.47 15.8781 98.47 19.2985C98.47 22.791 100.496 25.5633 103.978 25.5633C107.39 25.5993 109.628 22.899 109.628 19.2985Z" fill="#FF8300"/>
<path d="M121.959 28.4077V10.1893C121.959 8.82116 122.705 8.10107 124.02 8.10107H126.543C127.893 8.10107 128.604 8.85717 128.604 10.1893V11.6655C129.457 9.1092 131.838 7.59701 134.574 7.59701C137.097 7.59701 139.549 8.67715 140.97 11.4855C143.031 8.17308 145.59 7.59701 148.077 7.59701C153.799 7.59701 156.215 12.3496 156.215 17.6063V28.3717C156.215 29.7399 155.433 30.4599 154.119 30.4599H151.631C150.281 30.4599 149.57 29.7038 149.57 28.3717V17.9663C149.57 14.8339 148.362 13.1417 146.372 13.1417C144.524 13.1417 142.498 14.6539 142.427 18.7584V28.4437C142.427 29.8119 141.681 30.532 140.366 30.532H137.843C136.493 30.532 135.782 29.7759 135.782 28.4437V17.9663C135.782 14.8339 134.609 13.1417 132.655 13.1417C130.665 13.1417 128.639 14.7979 128.639 18.9745V28.4437C128.639 29.8119 127.893 30.532 126.578 30.532H124.02C122.705 30.532 121.959 29.7759 121.959 28.4077Z" fill="#FF8300"/>
<path d="M162.897 23.0789V13.1056H160.694C160.018 13.1056 159.556 12.7096 159.556 12.0255V9.18113C159.556 8.49704 159.983 8.10099 160.694 8.10099H163.394L164.141 3.56441C164.318 2.66429 164.922 2.16022 165.811 2.16022H167.907C168.902 2.16022 169.4 2.7363 169.4 3.67242V8.06498H174.375C175.05 8.06498 175.441 8.46103 175.441 9.14512V11.9895C175.441 12.6736 175.05 13.0696 174.375 13.0696H169.4V23.2229C169.4 24.8791 170.217 25.5272 171.212 25.5272C172.314 25.5272 173.06 24.6631 173.06 23.475C173.06 23.2589 173.06 23.0069 173.025 22.6829C172.954 21.8908 173.202 21.4947 173.913 21.4947H176.543C177.111 21.4947 177.573 21.7107 177.751 22.3588C177.929 23.0069 178 23.727 178 24.051C178 28.8757 174.588 30.8919 170.608 30.8919C166.877 30.9999 162.897 29.2357 162.897 23.0789Z" fill="#FF8300"/>
<path d="M15.6003 0C6.64522 0 0 6.9849 0 15.482C0 23.9791 6.64522 30.964 15.6003 30.964C24.5198 30.964 31.165 23.9791 31.165 15.482C31.165 6.9849 24.4843 0 15.6003 0ZM15.6003 26.0313C9.95007 26.0313 5.68575 21.4228 5.68575 15.482H25.4793C25.4793 21.4228 21.1794 26.0313 15.6003 26.0313Z" fill="#FF8300"/>
</svg>
