<svg width="18" height="20" viewBox="0 0 18 20" fill="none" xmlns="http://www.w3.org/2000/svg">
<path d="M16.4655 11.8699C16.6537 12.0816 16.9431 12.1675 17.213 12.098C17.1981 12.4941 17.1813 12.7205 17.1679 12.8529C17.1588 12.9427 17.1512 12.9888 17.1462 13.0185C17.146 13.0199 17.1456 13.022 17.1451 13.0248C17.1402 13.0521 17.1243 13.1404 17.1243 13.2375C17.1243 14.421 15.9196 15.5774 14.3673 15.5774C12.8482 15.5774 11.7233 14.4507 11.7233 13.2375C11.7233 12.0256 12.8465 10.8997 14.363 10.8976C14.7564 10.9027 15.1454 10.9906 15.5062 11.1567C15.8683 11.3234 16.1951 11.5657 16.4655 11.8699ZM17.1347 0.783421C17.1574 1.84661 17.1762 2.81706 17.1915 3.70299C17.1045 3.6833 17.0137 3.67908 16.9233 3.69156L6.80273 5.09012V2.15556L17.1347 0.783421ZM6.15098 15.7877V16.9101C6.15098 18.0936 4.94638 19.25 3.39401 19.25C1.87493 19.25 0.750003 18.1233 0.750003 16.9101C0.750003 15.6981 1.87325 14.5723 3.38973 14.5702C3.78317 14.5752 4.17213 14.6631 4.53291 14.8292C4.89506 14.996 5.22181 15.2383 5.49217 15.5424C5.65989 15.7311 5.90798 15.8199 6.15098 15.7877ZM6.41603 2.20668L6.42694 2.20537C6.42332 2.20585 6.41968 2.20629 6.41603 2.20668Z" stroke="white" stroke-width="1.5" stroke-miterlimit="10" stroke-linecap="round" stroke-linejoin="round"/>
</svg>
