<svg width="15" height="17" viewBox="0 0 15 17" fill="none" xmlns="http://www.w3.org/2000/svg">
<path fill-rule="evenodd" clip-rule="evenodd" d="M1.66424 7.58812L1.66442 10.6877C0.721515 10.8291 0 11.6517 0 12.6402V13.4831C0 14.107 0.500104 14.6141 1.1213 14.6141H4.74767C4.9524 15.9638 6.10515 17 7.50019 17C8.89522 17 10.048 15.9638 10.2527 14.6141H13.8791C14.4992 14.6141 15.0004 14.1051 15.0004 13.4831V12.6402C15.0004 11.6513 14.2776 10.8291 13.3361 10.6874V7.58755C13.3361 5.16263 11.8783 3.02624 9.72694 2.12898C9.66312 0.943759 8.69215 0 7.50019 0C6.30943 0 5.3374 0.94414 5.27345 2.12892C3.12198 3.02606 1.66424 5.16272 1.66424 7.58812ZM6.95654 2.25328C6.95654 1.94818 7.20231 1.70231 7.50019 1.70231C7.79898 1.70231 8.04384 1.94741 8.04384 2.25328V3.37259L8.65279 3.55036C10.4126 4.0641 11.6497 5.702 11.6497 7.58755V10.9556C11.6497 11.7351 12.2726 12.3686 13.0471 12.3686C13.1915 12.3686 13.3139 12.4896 13.3139 12.6402V12.9118H1.68643V12.6402C1.68643 12.4892 1.8082 12.3686 1.95329 12.3686C2.72667 12.3686 3.35068 11.7333 3.35068 10.9556V7.58755C3.35068 5.70151 4.58766 4.06402 6.34755 3.55035L6.95654 3.37259V2.25328ZM7.50019 15.2977C7.04513 15.2977 6.6528 15.0164 6.48659 14.6141H8.51378C8.34758 15.0164 7.95525 15.2977 7.50019 15.2977Z" fill="#3E3934"/>
</svg>
