<svg width="24" height="24" viewBox="0 0 24 24" fill="none" xmlns="http://www.w3.org/2000/svg">
<g opacity="0.3">
<path fill-rule="evenodd" clip-rule="evenodd" d="M6.66424 10.5881L6.66442 13.6877C5.72151 13.8291 5 14.6517 5 15.6402V16.4831C5 17.107 5.5001 17.6141 6.1213 17.6141H9.74767C9.9524 18.9638 11.1052 20 12.5002 20C13.8952 20 15.048 18.9638 15.2527 17.6141H18.8791C19.4992 17.6141 20.0004 17.1051 20.0004 16.4831V15.6402C20.0004 14.6513 19.2776 13.8291 18.3361 13.6874V10.5876C18.3361 8.16263 16.8783 6.02624 14.7269 5.12898C14.6631 3.94376 13.6922 3 12.5002 3C11.3094 3 10.3374 3.94414 10.2735 5.12892C8.12198 6.02606 6.66424 8.16272 6.66424 10.5881ZM11.9565 5.25328C11.9565 4.94818 12.2023 4.70231 12.5002 4.70231C12.799 4.70231 13.0438 4.94741 13.0438 5.25328V6.37259L13.6528 6.55036C15.4126 7.0641 16.6497 8.702 16.6497 10.5876V13.9556C16.6497 14.7351 17.2726 15.3686 18.0471 15.3686C18.1915 15.3686 18.3139 15.4896 18.3139 15.6402V15.9118H6.68643V15.6402C6.68643 15.4892 6.8082 15.3686 6.95329 15.3686C7.72667 15.3686 8.35068 14.7333 8.35068 13.9556V10.5876C8.35068 8.70151 9.58766 7.06402 11.3475 6.55035L11.9565 6.37259V5.25328ZM12.5002 18.2977C12.0451 18.2977 11.6528 18.0164 11.4866 17.6141H13.5138C13.3476 18.0164 12.9552 18.2977 12.5002 18.2977Z" fill="#3E3934"/>
</g>
</svg>
