<svg width="82" height="16" viewBox="0 0 82 16" fill="none" xmlns="http://www.w3.org/2000/svg">
<path d="M12.2279 5.31954C12.2279 8.16488 10.3972 10.3917 7.10185 10.3917H3.72519V14.6391C3.72519 15.3401 3.35905 15.7112 2.66744 15.7112H1.28423C0.59262 15.7112 0.185791 15.3401 0.185791 14.6391V1.11337C0.185791 0.412346 0.59262 0.041214 1.28423 0.041214H7.10185C10.4378 0.041214 12.2279 2.47419 12.2279 5.31954ZM8.68848 5.31954C8.68848 3.99996 7.87483 3.05151 6.61366 3.05151H3.68451V7.58756H6.61366C7.87483 7.54633 8.68848 6.59788 8.68848 5.31954Z" fill="#1825AA"/>
<path d="M13.2463 9.97932C13.2463 6.59789 15.5246 3.95873 18.6978 3.95873C20.2031 3.95873 21.5456 4.53605 22.3593 5.85563V5.27831C22.3593 4.57729 22.7254 4.20615 23.417 4.20615H24.7189C25.4105 4.20615 25.7766 4.57729 25.7766 5.27831V14.6391C25.7766 15.3401 25.4105 15.7112 24.7189 15.7112H23.417C22.7254 15.7112 22.3593 15.3401 22.3593 14.6391V14.103C21.5456 15.3814 20.2031 15.9587 18.6978 15.9587C15.5246 15.9587 13.2463 13.3607 13.2463 9.97932ZM22.4406 9.97932C22.4406 8.12366 21.3015 6.76284 19.5522 6.76284C17.7621 6.76284 16.7044 8.20613 16.7044 9.97932C16.7044 11.7525 17.7621 13.1958 19.5522 13.1958C21.2608 13.1958 22.4406 11.7937 22.4406 9.97932Z" fill="#1825AA"/>
<path d="M28.5433 14.6391V5.27831C28.5433 4.57729 28.9095 4.20615 29.6011 4.20615H30.8216C31.5132 4.20615 31.8793 4.57729 31.8793 5.27831V6.7216C32.2455 4.61852 33.8321 3.95873 34.8085 3.95873L35.1746 3.99997C35.7035 4.04121 35.8255 4.45357 35.8255 4.90718V6.47418C35.8255 7.09274 35.5001 7.38139 35.0526 7.29892C34.8492 7.25768 34.6864 7.25768 34.483 7.25768C33.1405 7.25768 31.92 8.12366 31.92 11.0102V14.6391C31.92 15.3401 31.5539 15.7112 30.8623 15.7112H29.5604C28.9095 15.7112 28.5433 15.3401 28.5433 14.6391Z" fill="#1825AA"/>
<path d="M38.184 11.8763V6.76288H37.0449C36.6788 6.76288 36.4753 6.5567 36.4753 6.18556V4.74227C36.4753 4.37114 36.6788 4.16496 37.0449 4.16496H38.4281L38.7943 1.81445C38.8756 1.36085 39.2011 1.11343 39.6486 1.11343H40.747C41.2759 1.11343 41.52 1.40208 41.52 1.89693V4.16496H44.083C44.4492 4.16496 44.6526 4.37114 44.6526 4.74227V6.18556C44.6526 6.5567 44.4492 6.76288 44.083 6.76288H41.52V12C41.52 12.8659 41.9268 13.1958 42.4557 13.1958C43.0253 13.1958 43.3914 12.7422 43.3914 12.1237C43.3914 12 43.3914 11.8763 43.3507 11.7113C43.31 11.2989 43.4321 11.0928 43.7982 11.0928H45.1408C45.4255 11.0928 45.6696 11.2165 45.751 11.5464C45.8324 11.8763 45.8731 12.2474 45.8731 12.4123C45.8731 14.8865 44.1237 15.9175 42.0489 15.9175C40.2588 15.9587 38.184 15.0927 38.184 11.8763Z" fill="#1825AA"/>
<path d="M47.5823 14.6391V5.27834C47.5823 4.57731 47.9484 4.20618 48.64 4.20618H49.9419C50.6335 4.20618 50.9996 4.57731 50.9996 5.27834V6.0206C51.5692 4.70102 52.749 3.91752 54.4577 3.91752C57.5089 3.91752 58.6073 6.3505 58.6073 9.03089V14.5979C58.6073 15.2989 58.2005 15.67 57.5089 15.67H56.2477C55.5561 15.67 55.1899 15.2989 55.1899 14.5979V9.31955C55.1899 7.71131 54.5797 6.76286 53.3999 6.76286C52.2201 6.76286 50.9996 7.67008 50.9996 9.81439V14.5979C50.9996 15.2989 50.6335 15.67 49.9419 15.67H48.64C47.9484 15.7113 47.5823 15.3401 47.5823 14.6391Z" fill="#1825AA"/>
<path d="M60.4792 10.0206C60.4792 6.76284 62.8795 3.95873 66.7037 3.95873C69.9176 3.95873 72.6027 5.9381 72.7248 9.60819C72.7654 10.268 72.3179 10.5566 71.6263 10.5566H63.6932C63.6525 11.9175 64.995 13.237 67.1919 13.237C68.0056 13.237 68.8599 13.0308 69.7142 12.536C70.3245 12.2061 70.8127 12.2473 71.2195 12.7422L71.4636 13.0721C71.9111 13.6082 71.8704 14.2267 71.2602 14.6803C69.9583 15.6288 68.4124 15.9999 66.9885 15.9999C62.9609 15.9587 60.4792 13.3195 60.4792 10.0206ZM69.5515 8.6185C69.226 7.0515 67.9242 6.59789 66.7444 6.59789C65.5646 6.59789 64.1814 7.13397 63.8152 8.6185H69.5515Z" fill="#1825AA"/>
<path d="M74.7179 14.6391V5.27831C74.7179 4.57729 75.084 4.20615 75.7756 4.20615H76.9961C77.6877 4.20615 78.0539 4.57729 78.0539 5.27831V6.7216C78.42 4.61852 80.0066 3.95873 80.983 3.95873L81.3492 3.99997C81.8781 4.04121 82.0001 4.45357 82.0001 4.90718V6.47418C82.0001 7.09274 81.6746 7.38139 81.2271 7.29892C81.0237 7.25768 80.861 7.25768 80.6576 7.25768C79.315 7.25768 78.0946 8.12366 78.0946 11.0102V14.6391C78.0946 15.3401 77.7284 15.7112 77.0368 15.7112H75.7756C75.084 15.7112 74.7179 15.3401 74.7179 14.6391Z" fill="#1825AA"/>
</svg>
