<svg width="24" height="24" viewBox="0 0 24 24" fill="none" xmlns="http://www.w3.org/2000/svg">
<g opacity="0.3">
<path fill-rule="evenodd" clip-rule="evenodd" d="M19.1053 6.5H4.89474C4.63313 6.5 4.42105 6.72386 4.42105 7V16C4.42105 16.2761 4.63313 16.5 4.89474 16.5H19.1053C19.3669 16.5 19.5789 16.2761 19.5789 16V7C19.5789 6.72386 19.3669 6.5 19.1053 6.5ZM4.89474 5C3.8483 5 3 5.89543 3 7V16C3 17.1046 3.8483 18 4.89474 18H19.1053C20.1517 18 21 17.1046 21 16V7C21 5.89543 20.1517 5 19.1053 5H4.89474Z" fill="#3E3934"/>
<rect x="3.94727" y="8" width="16.1053" height="1.5" fill="#3E3934"/>
</g>
</svg>
