<svg width="18" height="13" viewBox="0 0 18 13" fill="none" xmlns="http://www.w3.org/2000/svg">
<path fill-rule="evenodd" clip-rule="evenodd" d="M16.1053 1.5H1.89474C1.63313 1.5 1.42105 1.72386 1.42105 2V11C1.42105 11.2761 1.63313 11.5 1.89474 11.5H16.1053C16.3669 11.5 16.5789 11.2761 16.5789 11V2C16.5789 1.72386 16.3669 1.5 16.1053 1.5ZM1.89474 0C0.848303 0 0 0.895431 0 2V11C0 12.1046 0.848303 13 1.89474 13H16.1053C17.1517 13 18 12.1046 18 11V2C18 0.895431 17.1517 0 16.1053 0H1.89474Z" fill="#3E3934"/>
<rect x="0.947266" y="3" width="16.1053" height="1.5" fill="#3E3934"/>
</svg>
