<svg width="24" height="24" viewBox="0 0 24 24" fill="none" xmlns="http://www.w3.org/2000/svg">
<g opacity="0.3">
<path d="M18.5229 8.04348H17.6353L16.5 6.17812C16.2825 5.8197 15.9695 5.52212 15.5926 5.3153C15.2158 5.10848 14.7883 4.99974 14.3532 5H9.64679C9.2117 4.99974 8.78422 5.10848 8.40736 5.3153C8.03049 5.52212 7.71754 5.8197 7.5 6.17812L6.36468 8.04348H5.47706C4.82011 8.04348 4.19006 8.29172 3.72552 8.73361C3.26098 9.17549 3 9.77481 3 10.3997V16.6438C3 17.2687 3.26098 17.868 3.72552 18.3099C4.19006 18.7518 4.82011 19 5.47706 19H18.5229C19.1799 19 19.8099 18.7518 20.2745 18.3099C20.739 17.868 21 17.2687 21 16.6438V10.3997C21 9.77481 20.739 9.17549 20.2745 8.73361C19.8099 8.29172 19.1799 8.04348 18.5229 8.04348ZM19.3486 16.6438C19.3486 16.8521 19.2616 17.0518 19.1068 17.1991C18.9519 17.3464 18.7419 17.4292 18.5229 17.4292H5.47706C5.25808 17.4292 5.04806 17.3464 4.89321 17.1991C4.73837 17.0518 4.65138 16.8521 4.65138 16.6438V10.3997C4.65138 10.1914 4.73837 9.99164 4.89321 9.84435C5.04806 9.69705 5.25808 9.61431 5.47706 9.61431H6.83945C6.98564 9.61555 7.12956 9.57985 7.2565 9.51085C7.38343 9.44186 7.48883 9.34204 7.56193 9.2216L8.94495 6.96353C9.01805 6.8431 9.12345 6.74328 9.25038 6.67428C9.37732 6.60528 9.52124 6.56958 9.66743 6.57083H14.3532C14.4994 6.56958 14.6433 6.60528 14.7703 6.67428C14.8972 6.74328 15.0026 6.8431 15.0757 6.96353L16.4587 9.2216C16.5318 9.34204 16.6372 9.44186 16.7641 9.51085C16.8911 9.57985 17.035 9.61555 17.1812 9.61431H18.5436C18.7626 9.61431 18.9726 9.69705 19.1274 9.84435C19.2823 9.99164 19.3693 10.1914 19.3693 10.3997L19.3486 16.6438Z" fill="#3E3934"/>
<path d="M11.9991 8.37729C11.1213 8.37729 10.2633 8.62488 9.53345 9.08876C8.80361 9.55263 8.23477 10.212 7.89887 10.9834C7.56296 11.7547 7.47507 12.6036 7.64631 13.4225C7.81756 14.2414 8.24024 14.9936 8.86092 15.584C9.48159 16.1744 10.2724 16.5765 11.1333 16.7394C11.9942 16.9023 12.8865 16.8187 13.6975 16.4991C14.5084 16.1796 15.2016 15.6385 15.6892 14.9443C16.1769 14.25 16.4372 13.4338 16.4372 12.5989C16.4372 11.4792 15.9696 10.4055 15.1373 9.61377C14.305 8.82206 13.1762 8.37729 11.9991 8.37729ZM11.9991 15.2497C11.448 15.2497 10.9092 15.0942 10.4509 14.8029C9.99263 14.5117 9.63546 14.0977 9.42454 13.6133C9.21362 13.1289 9.15843 12.5959 9.26596 12.0817C9.37348 11.5675 9.63889 11.0952 10.0286 10.7245C10.4183 10.3538 10.9149 10.1013 11.4555 9.99905C11.996 9.89677 12.5563 9.94926 13.0655 10.1499C13.5747 10.3505 14.01 10.6903 14.3162 11.1262C14.6224 11.5621 14.7858 12.0746 14.7858 12.5989C14.7858 13.3019 14.4922 13.9762 13.9696 14.4733C13.447 14.9704 12.7382 15.2497 11.9991 15.2497Z" fill="#3E3934"/>
</g>
</svg>
