<svg width="18" height="14" viewBox="0 0 18 14" fill="none" xmlns="http://www.w3.org/2000/svg">
<path d="M15.5229 3.04348H14.6353L13.5 1.17812C13.2825 0.819705 12.9695 0.522116 12.5926 0.315299C12.2158 0.108482 11.7883 -0.000264861 11.3532 4.84426e-07H6.64679C6.2117 -0.000264861 5.78422 0.108482 5.40736 0.315299C5.03049 0.522116 4.71754 0.819705 4.5 1.17812L3.36468 3.04348H2.47706C1.82011 3.04348 1.19006 3.29172 0.725515 3.73361C0.260976 4.17549 0 4.77481 0 5.39972V11.6438C0 12.2687 0.260976 12.868 0.725515 13.3099C1.19006 13.7518 1.82011 14 2.47706 14H15.5229C16.1799 14 16.8099 13.7518 17.2745 13.3099C17.739 12.868 18 12.2687 18 11.6438V5.39972C18 4.77481 17.739 4.17549 17.2745 3.73361C16.8099 3.29172 16.1799 3.04348 15.5229 3.04348ZM16.3486 11.6438C16.3486 11.8521 16.2616 12.0518 16.1068 12.1991C15.9519 12.3464 15.7419 12.4292 15.5229 12.4292H2.47706C2.25808 12.4292 2.04806 12.3464 1.89321 12.1991C1.73837 12.0518 1.65138 11.8521 1.65138 11.6438V5.39972C1.65138 5.19141 1.73837 4.99164 1.89321 4.84435C2.04806 4.69705 2.25808 4.61431 2.47706 4.61431H3.83945C3.98564 4.61555 4.12956 4.57985 4.2565 4.51085C4.38343 4.44186 4.48883 4.34204 4.56193 4.2216L5.94495 1.96353C6.01805 1.8431 6.12345 1.74328 6.25038 1.67428C6.37732 1.60528 6.52124 1.56958 6.66743 1.57083H11.3532C11.4994 1.56958 11.6433 1.60528 11.7703 1.67428C11.8972 1.74328 12.0026 1.8431 12.0757 1.96353L13.4587 4.2216C13.5318 4.34204 13.6372 4.44186 13.7641 4.51085C13.8911 4.57985 14.035 4.61555 14.1812 4.61431H15.5436C15.7626 4.61431 15.9726 4.69705 16.1274 4.84435C16.2823 4.99164 16.3693 5.19141 16.3693 5.39972L16.3486 11.6438Z" fill="#3E3934"/>
<path d="M8.99911 3.37729C8.12134 3.37729 7.26329 3.62488 6.53345 4.08876C5.80361 4.55263 5.23477 5.21196 4.89887 5.98335C4.56296 6.75475 4.47507 7.60357 4.64631 8.42248C4.81756 9.24139 5.24024 9.99361 5.86092 10.584C6.48159 11.1744 7.27238 11.5765 8.13329 11.7394C8.99419 11.9023 9.88654 11.8187 10.6975 11.4991C11.5084 11.1796 12.2016 10.6385 12.6892 9.94428C13.1769 9.25004 13.4372 8.43384 13.4372 7.59889C13.4372 6.47925 12.9696 5.40547 12.1373 4.61377C11.305 3.82206 10.1762 3.37729 8.99911 3.37729ZM8.99911 10.2497C8.44795 10.2497 7.90917 10.0942 7.4509 9.80292C6.99263 9.51165 6.63546 9.09766 6.42454 8.61329C6.21362 8.12893 6.15843 7.59595 6.26596 7.08175C6.37348 6.56755 6.63889 6.09523 7.02862 5.72451C7.41834 5.35379 7.91489 5.10133 8.45545 4.99905C8.99602 4.89677 9.55633 4.94926 10.0655 5.14989C10.5747 5.35052 11.01 5.69028 11.3162 6.1262C11.6224 6.56212 11.7858 7.07461 11.7858 7.59889C11.7858 8.30192 11.4922 8.97615 10.9696 9.47327C10.447 9.97038 9.73819 10.2497 8.99911 10.2497Z" fill="#3E3934"/>
</svg>
