<svg width="17" height="18" viewBox="0 0 17 18" fill="none" xmlns="http://www.w3.org/2000/svg">
<path d="M1.7418 16.3636H15.2595L14.9372 14.0938C14.7343 12.6654 13.288 11.4545 11.7851 11.4545H5.21621C3.71448 11.4545 2.26688 12.666 2.06412 14.0938L1.7418 16.3636ZM0.372639 13.8731C0.690662 11.6336 2.86145 9.81815 5.21621 9.81815H11.7851C14.1421 9.81815 16.3107 11.634 16.6287 13.8731L16.9852 16.3835C17.1119 17.2763 16.4434 18 15.5119 18H1.48941C0.548972 18 -0.110296 17.2739 0.0161446 16.3835L0.372639 13.8731ZM8.50062 8.18179C4.92429 8.18179 4.23292 5.55644 4.23292 3.57951C4.23292 1.60259 6.14363 -3.05176e-05 8.50062 -3.05176e-05C10.8576 -3.05176e-05 12.7683 1.60259 12.7683 3.57951C12.7683 5.55644 12.077 8.18179 8.50062 8.18179ZM8.50062 6.54542C10.3921 6.54542 11.0612 5.57017 11.0612 3.57951C11.0612 2.55854 9.96175 1.63633 8.50062 1.63633C7.03949 1.63633 5.94 2.55854 5.94 3.57951C5.94 5.57017 6.60915 6.54542 8.50062 6.54542Z" fill="#3E3934"/>
</svg>
