<svg width="24" height="24" viewBox="0 0 24 24" fill="none" xmlns="http://www.w3.org/2000/svg">
<g opacity="0.3">
<path d="M5.7418 19.3636H19.2595L18.9372 17.0938C18.7343 15.6654 17.288 14.4545 15.7851 14.4545H9.21621C7.71448 14.4545 6.26688 15.666 6.06412 17.0938L5.7418 19.3636ZM4.37264 16.8731C4.69066 14.6336 6.86145 12.8182 9.21621 12.8182H15.7851C18.1421 12.8182 20.3107 14.634 20.6287 16.8731L20.9852 19.3835C21.1119 20.2763 20.4434 21 19.5119 21H5.48941C4.54897 21 3.8897 20.2739 4.01614 19.3835L4.37264 16.8731ZM12.5006 11.1818C8.92429 11.1818 8.23292 8.55644 8.23292 6.57951C8.23292 4.60259 10.1436 2.99997 12.5006 2.99997C14.8576 2.99997 16.7683 4.60259 16.7683 6.57951C16.7683 8.55644 16.077 11.1818 12.5006 11.1818ZM12.5006 9.54542C14.3921 9.54542 15.0612 8.57017 15.0612 6.57951C15.0612 5.55854 13.9618 4.63633 12.5006 4.63633C11.0395 4.63633 9.94 5.55854 9.94 6.57951C9.94 8.57017 10.6092 9.54542 12.5006 9.54542Z" fill="#3E3934"/>
</g>
</svg>
