<svg width="22" height="22" viewBox="0 0 22 22" fill="none" xmlns="http://www.w3.org/2000/svg">
<path d="M10.8642 6.23019C10.2161 6.21054 9.6245 5.86015 9.30032 5.30403L9.01623 4.81668C8.9738 4.74389 8.87982 4.71895 8.80633 4.76098L6.71669 5.95588C6.60124 6.0219 6.56168 6.16812 6.62834 6.28246L6.94697 6.82906C7.28127 7.40256 7.28127 8.10913 6.94697 8.68262C6.61266 9.25612 5.99484 9.6094 5.32623 9.6094L4.68897 9.6094C4.55566 9.6094 4.44759 9.71644 4.44759 9.84847L4.44759 12.2383C4.44759 12.3223 4.51638 12.3905 4.60125 12.3905L5.16943 12.3905C5.81779 12.3905 6.41998 12.7228 6.76119 13.2688L6.84187 13.3979C7.20463 13.9784 7.21593 14.7094 6.87128 15.3007L6.59538 15.774C6.54693 15.8571 6.57568 15.9634 6.65961 16.0114L8.78744 17.2281C8.87136 17.2761 8.97868 17.2476 9.02713 17.1645L9.30303 16.6912C9.64768 16.1 10.2925 15.7441 10.9815 15.765L11.1347 15.7697C11.7828 15.7893 12.3744 16.1397 12.6986 16.6958L12.9827 17.1832C13.0251 17.256 13.1191 17.2809 13.1926 17.2389L15.2822 16.044C15.3977 15.978 15.4372 15.8318 15.3706 15.7174L15.0519 15.1708C14.7176 14.5973 14.7176 13.8907 15.0519 13.3173C15.3863 12.7438 16.0041 12.3905 16.6727 12.3905L17.3099 12.3905C17.4433 12.3905 17.5513 12.2834 17.5513 12.1514L17.5513 9.76159C17.5513 9.67754 17.4825 9.6094 17.3977 9.6094L16.8295 9.6094C16.1811 9.6094 15.5789 9.27712 15.2377 8.73108L15.157 8.60197C14.7943 8.02145 14.783 7.29046 15.1276 6.69922L15.4035 6.22593C15.452 6.1428 15.4232 6.03651 15.3393 5.98852L13.2115 4.77178C13.1275 4.72379 13.0202 4.75227 12.9718 4.83539L12.6959 5.30868C12.3512 5.89992 11.7064 6.25573 11.0174 6.23484L10.8642 6.23019ZM10.8928 5.3036L11.0461 5.30825C11.3906 5.31869 11.713 5.14079 11.8853 4.84517L12.1612 4.37188C12.4681 3.84536 13.1479 3.66497 13.6795 3.96895L15.8073 5.1857C16.3389 5.48968 16.521 6.16293 16.2141 6.68944L15.9382 7.16273C15.7659 7.45835 15.7715 7.82385 15.9529 8.11411L16.0336 8.24322C16.2042 8.51623 16.5053 8.68238 16.8295 8.68238L17.3977 8.68238C17.9995 8.68238 18.4873 9.16556 18.4873 9.76159L18.4873 12.1514C18.4873 12.7954 17.9602 13.3175 17.3099 13.3175L16.6727 13.3175C16.3385 13.3175 16.0296 13.4941 15.8625 13.7808C15.6954 14.0674 15.6954 14.4206 15.8625 14.7073L16.1812 15.2539C16.5063 15.8116 16.3133 16.5248 15.7502 16.8468L13.6606 18.0417C13.1394 18.3397 12.473 18.1629 12.1721 17.6467L11.888 17.1594C11.7259 16.8813 11.4301 16.7061 11.1061 16.6963L10.9528 16.6916C10.6083 16.6812 10.2859 16.8591 10.1136 17.1547L9.83772 17.628C9.5308 18.1545 8.85104 18.3349 8.31945 18.0309L6.19162 16.8142C5.66002 16.5102 5.47788 15.837 5.7848 15.3104L6.06069 14.8371C6.23302 14.5415 6.22737 14.176 6.04599 13.8858L5.96531 13.7567C5.79471 13.4836 5.49361 13.3175 5.16943 13.3175L4.60125 13.3175C3.99946 13.3175 3.51161 12.8343 3.51161 12.2383L3.51161 9.84847C3.51161 9.20446 4.03873 8.68238 4.68897 8.68238L5.32623 8.68238C5.66045 8.68238 5.96928 8.50578 6.13639 8.21911C6.30349 7.93244 6.30349 7.57925 6.13639 7.29258L5.81776 6.74597C5.49264 6.18824 5.68558 5.47506 6.2487 5.15306L8.33834 3.95815C8.8595 3.66013 9.52592 3.83699 9.82681 4.35317L10.1109 4.84052C10.273 5.11858 10.5688 5.29377 10.8928 5.3036Z" fill="#3E3934"/>
<path fill-rule="evenodd" clip-rule="evenodd" d="M13.5284 4.22812C13.1395 4.00571 12.6445 4.13859 12.4217 4.52079L12.1458 4.99408C11.9174 5.38577 11.4906 5.62081 11.0357 5.60702L10.8824 5.60237C10.4546 5.5894 10.0642 5.35819 9.85019 4.99105L9.5661 4.50369C9.34776 4.12914 8.86448 4.00163 8.48782 4.21701L6.39819 5.41192C5.98043 5.6508 5.83646 6.18015 6.07853 6.59543L6.39716 7.14204C6.61792 7.52074 6.61829 7.98815 6.39685 8.36802C6.17541 8.7479 5.76653 8.98129 5.32501 8.98129L4.68775 8.98129C4.2036 8.98129 3.81272 9.36946 3.81272 9.84722L3.81272 12.237C3.81272 12.6678 4.16586 13.0186 4.60253 13.0186L5.17072 13.0186C5.59876 13.0186 5.99613 13.2379 6.22137 13.5983L6.30205 13.7274C6.54161 14.1108 6.54949 14.5944 6.32116 14.9861L6.04526 15.4594C5.82247 15.8416 5.95379 16.3326 6.34273 16.555L8.47056 17.7717C8.85951 17.9942 9.35453 17.8613 9.57732 17.4791L9.85322 17.0058C10.0815 16.6141 10.5083 16.3791 10.9633 16.3928L11.1165 16.3975C11.5443 16.4105 11.9348 16.6417 12.1488 17.0088L12.4329 17.4962C12.6512 17.8707 13.1345 17.9982 13.5112 17.7829L15.6008 16.5879C16.0185 16.3491 16.1625 15.8197 15.9204 15.4044L15.6018 14.8578C15.3811 14.4791 15.3807 14.0117 15.6021 13.6318C15.8236 13.252 16.2325 13.0186 16.674 13.0186L17.3112 13.0186C17.7954 13.0186 18.1863 12.6304 18.1863 12.1526L18.1863 9.76283C18.1863 9.33207 17.8331 8.98129 17.3964 8.98129L16.8283 8.98129C16.4002 8.98129 16.0028 8.762 15.7776 8.40156L15.6969 8.27245C15.4574 7.88909 15.4495 7.4055 15.6778 7.0138L15.9537 6.54051C16.1765 6.15831 16.0452 5.66728 15.6562 5.44487L13.5284 4.22812ZM11.9008 4.22295C12.2918 3.55212 13.1563 3.32421 13.8306 3.70976L15.9584 4.92651C16.6327 5.31206 16.8656 6.16752 16.4746 6.83835L16.1987 7.31164C16.0824 7.51119 16.0858 7.75859 16.209 7.95575L16.2897 8.08486C16.4056 8.27045 16.6104 8.38345 16.8308 8.38345L17.399 8.38345C18.1659 8.38345 18.7884 8.99903 18.7884 9.76034L18.7884 12.1502C18.7884 12.9604 18.125 13.6164 17.3087 13.6164L16.6715 13.6164C16.4446 13.6164 16.2358 13.7362 16.123 13.9297C16.0102 14.1231 16.0098 14.3621 16.1233 14.5568L16.4419 15.1034C16.8501 15.8036 16.6082 16.7005 15.8997 17.1057L13.8101 18.3006C13.1444 18.6812 12.2948 18.455 11.9114 17.7972L11.6273 17.3099C11.5171 17.1209 11.3159 17.0017 11.0957 16.995L10.9424 16.9904C10.7084 16.9833 10.4904 17.1041 10.3741 17.3036L10.0982 17.7769C9.70713 18.4477 8.84264 18.6757 8.1684 18.2901L6.04057 17.0734C5.36632 16.6878 5.13336 15.8323 5.5244 15.1615L5.8003 14.6882C5.91662 14.4887 5.9132 14.2413 5.79 14.0441L5.70932 13.915C5.59335 13.7294 5.38853 13.6164 5.16821 13.6164L4.60003 13.6164C3.83312 13.6164 3.21056 13.0008 3.21056 12.2395L3.21056 9.84971C3.21056 9.03944 3.87394 8.38345 4.69026 8.38345L5.32752 8.38345C5.55443 8.38345 5.76321 8.26365 5.87599 8.07018C5.98877 7.87672 5.98913 7.63774 5.87568 7.4431L5.55705 6.8965C5.14889 6.19631 5.39079 5.29932 6.09928 4.89418L8.18892 3.69927C8.8546 3.31862 9.70414 3.54483 10.0876 4.20263L10.3717 4.68998C10.4818 4.87896 10.6831 4.99814 10.9033 5.00481L11.0566 5.00946C11.2906 5.01656 11.5086 4.89579 11.6249 4.69624L11.9008 4.22295ZM12.7114 4.68646C12.844 4.45903 13.136 4.38303 13.3626 4.51259L15.4904 5.72934C15.717 5.8589 15.7966 6.1474 15.664 6.37484L15.3881 6.84813C15.0995 7.3433 15.1085 7.9562 15.4131 8.44362L15.4938 8.57273C15.7804 9.03134 16.2863 9.31048 16.8308 9.31048L17.399 9.31048C17.6489 9.31048 17.8524 9.51102 17.8524 9.76034L17.8524 12.1502C17.8524 12.4484 17.6081 12.6894 17.3087 12.6894L16.6715 12.6894C16.1102 12.6894 15.5924 12.9859 15.3124 13.4662C15.0324 13.9465 15.0321 14.5388 15.3127 15.0203L15.6314 15.5669C15.781 15.8237 15.6925 16.1537 15.4317 16.3029L13.3421 17.4978C13.1241 17.6224 12.847 17.5481 12.722 17.3337L12.4379 16.8464C12.1656 16.3793 11.6686 16.085 11.1243 16.0685L10.9711 16.0638C10.3926 16.0463 9.85214 16.3449 9.56349 16.8401L9.28759 17.3134C9.15502 17.5408 8.86296 17.6168 8.63639 17.4873L6.50856 16.2705C6.28198 16.141 6.20241 15.8525 6.33499 15.625L6.61088 15.1517C6.89953 14.6566 6.89046 14.0437 6.58588 13.5562L6.5052 13.4271C6.21862 12.9685 5.71271 12.6894 5.16821 12.6894L4.60003 12.6894C4.35005 12.6894 4.14654 12.4889 4.14654 12.2395L4.14654 9.84971C4.14654 9.55142 4.39086 9.31048 4.69026 9.31048L5.32752 9.31048C5.88883 9.31048 6.4066 9.01398 6.68657 8.5337C6.96655 8.05341 6.96691 7.46105 6.68626 6.97959L6.36763 6.43299C6.21793 6.17619 6.30645 5.84615 6.56727 5.69701L8.65691 4.5021C8.87492 4.37744 9.15202 4.45173 9.27701 4.66614L9.5611 5.15349C9.83335 5.62053 10.3304 5.9149 10.8747 5.93141L11.0279 5.93605C11.6064 5.95359 12.1468 5.65492 12.4355 5.15975L12.7114 4.68646ZM13.1689 5.09297L12.9563 5.45759C12.5557 6.1449 11.8065 6.55785 11.007 6.53361L10.8538 6.52896C10.102 6.50616 9.41572 6.09976 9.03961 5.45456L8.8286 5.09258L6.91959 6.1842L7.20775 6.67852C7.5957 7.34406 7.59607 8.16484 7.20743 8.83154C6.81879 9.49823 6.10092 9.90831 5.32501 9.90831L4.7487 9.90831L4.7487 12.0916L5.17072 12.0916C5.92293 12.0916 6.62141 12.477 7.01725 13.1104L7.09793 13.2396C7.51887 13.9132 7.53239 14.7623 7.13174 15.4496L6.91919 15.8142L8.83009 16.9069L9.04263 16.5423C9.44329 15.855 10.1925 15.442 10.992 15.4663L11.1452 15.4709C11.897 15.4937 12.5833 15.9001 12.9594 16.5453L13.1704 16.9073L15.0794 15.8157L14.7912 15.3213C14.4033 14.6558 14.4029 13.835 14.7916 13.1683C15.1802 12.5016 15.8981 12.0916 16.674 12.0916L17.2503 12.0916L17.2503 9.90831L16.8283 9.90831C16.076 9.90831 15.3776 9.52289 14.9817 8.88942L14.901 8.76031C14.4801 8.0867 14.4666 7.2376 14.8672 6.55029L15.0798 6.18567L13.1689 5.09297ZM15.1328 15.7851L15.1326 15.7852L15.1328 15.7851ZM4.60254 12.0916C4.60262 12.0916 4.60271 12.0916 4.6028 12.0916L4.60254 12.0916Z" fill="#3E3934"/>
<path d="M11.0002 9.14593C9.96635 9.14593 9.12824 9.97601 9.12824 11C9.12824 12.0239 9.96635 12.854 11.0002 12.854C12.0341 12.854 12.8722 12.0239 12.8722 11C12.8722 9.97601 12.0341 9.14593 11.0002 9.14593ZM11.0002 8.2189C12.551 8.2189 13.8081 9.46403 13.8081 11C13.8081 12.5359 12.551 13.781 11.0002 13.781C9.44942 13.781 8.19226 12.5359 8.19226 11C8.19226 9.46403 9.44942 8.2189 11.0002 8.2189Z" fill="#3E3934"/>
<path fill-rule="evenodd" clip-rule="evenodd" d="M11.0003 8.51891C9.61245 8.51891 8.49233 9.63244 8.49233 11C8.49233 12.3675 9.61245 13.4811 11.0003 13.4811C12.3881 13.4811 13.5082 12.3675 13.5082 11C13.5082 9.63244 12.3881 8.51891 11.0003 8.51891ZM7.89233 11C7.89233 9.29565 9.28653 7.91891 11.0003 7.91891C12.714 7.91891 14.1082 9.29565 14.1082 11C14.1082 12.7043 12.714 14.0811 11.0003 14.0811C9.28653 14.0811 7.89233 12.7043 7.89233 11ZM8.82832 11C8.82832 9.80763 9.80346 8.84594 11.0003 8.84594C12.1971 8.84594 13.1722 9.80763 13.1722 11C13.1722 12.1923 12.1971 13.154 11.0003 13.154C9.80346 13.154 8.82832 12.1923 8.82832 11ZM11.0003 9.44594C10.1294 9.44594 9.42831 10.1444 9.42831 11C9.42831 11.8556 10.1294 12.554 11.0003 12.554C11.8712 12.554 12.5722 11.8556 12.5722 11C12.5722 10.1444 11.8712 9.44594 11.0003 9.44594Z" fill="#3E3934"/>
</svg>
