<svg width="24" height="24" viewBox="0 0 24 24" fill="none" xmlns="http://www.w3.org/2000/svg">
<path fill-rule="evenodd" clip-rule="evenodd" d="M15.4875 18.1543C13.3315 19.3778 10.6695 19.3779 8.51343 18.1545L9.56134 17.1066C11.0997 17.8415 12.9014 17.8416 14.4398 17.1066L15.4875 18.1543ZM18.154 15.4876C19.3771 13.3317 19.377 10.67 18.1538 8.51413L17.1061 9.56178C17.8411 11.1 17.8411 12.9016 17.1063 14.4399L18.154 15.4876ZM15.4871 5.84757C13.3313 4.6244 10.6697 4.62436 8.51384 5.84744L9.5618 6.89541C11.0999 6.16071 12.9012 6.16068 14.4394 6.89533L15.4871 5.84757ZM5.84686 15.4878C4.62358 13.3318 4.62366 10.6699 5.84709 8.51391L6.89512 9.56193C6.16027 11.1001 6.1602 12.9016 6.8949 14.4398L5.84686 15.4878ZM18.0002 18.0009C14.6866 21.3146 9.31414 21.3146 6.0005 18.0009C2.68687 14.6873 2.68687 9.31484 6.0005 6.00121C9.31414 2.68757 14.6866 2.68757 18.0002 6.00121C21.3139 9.31484 21.3139 14.6873 18.0002 18.0009ZM15.0006 15.001C13.3438 16.6578 10.6575 16.6578 9.00072 15.001C7.34391 13.3442 7.34391 10.658 9.00072 9.00116C10.6575 7.34434 13.3438 7.34434 15.0006 9.00116C16.6574 10.658 16.6574 13.3442 15.0006 15.001Z" fill="#3E3934"/>
</svg>
