<svg width="24" height="20" viewBox="0 0 24 20" fill="none" xmlns="http://www.w3.org/2000/svg">
<path d="M1.86694 1.19388C1.43921 0.753082 0.747803 0.753082 0.320068 1.19388C-0.106689 1.6348 -0.106689 2.34952 0.320068 2.79044L1.60913 4.12149L0.321045 5.45145C-0.105713 5.89236 -0.105713 6.60709 0.321045 7.048C0.747803 7.4888 1.44019 7.4888 1.86792 7.048L3.15503 5.71817L4.44312 7.04776C4.86987 7.48868 5.56226 7.48868 5.98901 7.04776C6.41675 6.60696 6.41675 5.89212 5.98901 5.45132L4.7019 4.12149L5.98999 2.79056C6.41772 2.34976 6.41772 1.63492 5.98999 1.19412C5.56323 0.753204 4.87085 0.753204 4.44409 1.19412L3.15503 2.52469L1.86694 1.19388Z" fill="white" fill-opacity="0.5"/>
<path d="M7.10132 13.7545C6.23022 13.7545 5.43237 13.6215 4.63745 13.2661C3.85229 12.9149 3.09937 12.3601 2.29468 11.5579C2.19019 11.4663 2.1062 11.3555 2.0437 11.2328C1.97632 11.1016 1.9353 10.9583 1.92163 10.8122C1.90698 10.6659 1.91968 10.5176 1.95972 10.376C1.99878 10.2344 2.06519 10.1004 2.15601 9.98355C2.24683 9.86649 2.36011 9.76859 2.49292 9.69876C2.62476 9.62881 2.77026 9.58951 2.92065 9.58536C3.07104 9.58109 3.21948 9.61234 3.35522 9.6752C3.48315 9.73428 3.59546 9.81961 3.68921 9.92337C4.38843 10.6214 4.91284 11.0105 5.40894 11.2336C5.89917 11.454 6.40405 11.5309 7.10132 11.5309C7.63354 11.5309 8.23999 11.3052 8.93628 10.8886C9.62769 10.4745 10.3503 9.9075 11.114 9.29031L11.3132 9.12943L11.321 9.12283C12.0125 8.56339 12.7478 7.96805 13.5144 7.50369C14.363 6.98953 15.2957 6.60477 16.3162 6.60477C17.6619 6.60477 19.0779 7.23575 20.2898 8.95755C20.3708 9.07181 20.4294 9.20035 20.4636 9.33524C20.4988 9.47037 20.5095 9.61111 20.4958 9.74991C20.4822 9.8887 20.4441 10.0248 20.3826 10.1504C20.321 10.2763 20.2371 10.3904 20.1326 10.4849C20.0271 10.5795 19.9041 10.6523 19.7693 10.6964C19.6345 10.7406 19.491 10.7547 19.3494 10.737C19.2087 10.7191 19.074 10.6704 18.9529 10.5956C18.8328 10.521 18.7302 10.4224 18.6492 10.3079C18.1931 9.65994 17.7869 9.29922 17.4226 9.09598C17.0632 8.89603 16.7078 8.8284 16.3162 8.8284C15.8035 8.8284 15.2097 9.05179 14.5193 9.46927C13.8347 9.88358 13.114 10.4508 12.3484 11.069L12.1912 11.1961C11.4841 11.7685 10.7263 12.3815 9.93335 12.8573C9.07593 13.3715 8.13257 13.7545 7.10132 13.7545Z" fill="white" fill-opacity="0.5"/>
<path d="M23.0798 12.8216C23.5076 13.2624 23.5076 13.9772 23.0798 14.418L21.7908 15.7491L23.0789 17.079C23.5066 17.5198 23.5066 18.2346 23.0789 18.6754C22.6521 19.1164 21.9597 19.1164 21.533 18.6754L20.2449 17.3457L18.9578 18.6754C18.53 19.1162 17.8376 19.1162 17.4109 18.6754C16.9841 18.2345 16.9841 17.5198 17.4109 17.0789L18.699 15.7491L17.4099 14.4181C16.9832 13.9772 16.9832 13.2625 17.4099 12.8216C17.8376 12.3808 18.5291 12.3808 18.9568 12.8216L20.2449 14.1523L21.5339 12.8216C21.9607 12.3806 22.6531 12.3806 23.0798 12.8216Z" fill="white" fill-opacity="0.5"/>
</svg>
