<svg width="20" height="25" viewBox="0 0 20 25" fill="none" xmlns="http://www.w3.org/2000/svg">
<path fill-rule="evenodd" clip-rule="evenodd" d="M4.01254 0L3.99287 0.000266238C3.6283 0.0101371 3.28324 0.16415 3.02827 0.427502C2.7736 0.690549 2.62799 1.04254 2.61866 1.41035L2.61841 1.42987V2.10085L2.55234 1.83731C2.02981 1.90888 1.53394 2.11827 1.11253 2.44529C0.762456 2.73887 0.480736 3.10994 0.288172 3.53109C0.0956072 3.95224 -0.0028796 4.41271 3.53029e-07 4.87845C3.53029e-07 7.98555 2.88033 10.317 4.78223 11.1762C4.8613 11.3232 4.93037 11.4523 4.98437 11.5641L4.99261 11.5806C5.63288 12.8279 6.5782 13.8821 7.73591 14.6376C7.85525 14.7155 7.99399 14.7569 8.1357 14.7568L8.39632 14.7567V16.7748C8.39632 16.8371 8.39632 16.957 8.44779 16.975C7.7397 17.1615 7.23406 17.4647 6.99134 17.8542H5.58647C5.48239 17.8626 5.3844 17.9157 5.31064 18.0037C5.23688 18.0916 5.19232 18.2084 5.18523 18.3325V24.072H14.8149V18.3325C14.8078 18.2084 14.7632 18.0916 14.6895 18.0037C14.6157 17.9157 14.5177 17.8626 14.4137 17.8542H13.098C12.9194 17.6194 12.7009 17.4192 12.4527 17.2635C12.2192 17.1171 11.964 17.0131 11.6981 16.9551C11.6975 16.9447 11.6925 16.9312 11.6868 16.9159L11.6827 16.9045C11.6758 16.8852 11.6691 16.8638 11.6691 16.8423L11.6682 14.7551L11.9954 14.755C12.1368 14.7549 12.2753 14.7136 12.3945 14.6358C13.5522 13.8802 14.4975 12.8261 15.1378 11.5788L15.146 11.5622C15.2026 11.445 15.2759 11.3086 15.3598 11.1527L15.3643 11.1444C15.371 11.132 15.3778 11.1193 15.3846 11.1066C17.2829 10.2426 19.9999 7.89571 19.9999 4.87768C19.9874 4.13133 19.7166 3.41427 19.2364 2.8564C18.7853 2.33238 18.1776 1.98136 17.512 1.85766V1.42987L17.5117 1.41098C17.5027 1.04289 17.3571 0.69056 17.1023 0.427333C16.8471 0.16379 16.5017 0.00981049 16.1369 0.000249452L16.1178 0H4.01254ZM17.421 3.38682C17.2989 5.20083 16.947 6.98815 16.3759 8.70343C16.6482 8.47663 16.9163 8.22299 17.1666 7.94524C17.9979 7.02275 18.5141 5.97305 18.5184 4.89144C18.5092 4.50473 18.3675 4.1367 18.1227 3.85228C17.9317 3.63038 17.6882 3.47097 17.421 3.38682ZM3.78887 8.80771C3.19234 7.04604 2.82758 5.20718 2.70623 3.3405C2.46433 3.38077 2.23346 3.47927 2.03245 3.62962C1.86399 3.77619 1.72661 3.95984 1.63099 4.16898C1.53132 4.38696 1.47996 4.62625 1.48146 4.86893L1.48152 4.87845H1.48149C1.48149 5.96061 1.99473 6.99697 2.82931 7.91602C3.12947 8.24656 3.45691 8.54533 3.78887 8.80771ZM4.0999 2.15656V1.51005H16.0305V2.24093C16.0305 2.25295 16.0308 2.26497 16.0313 2.27697C16.0385 2.43045 16.0236 2.58413 15.9872 2.73294C15.9754 2.78104 15.9683 2.83021 15.966 2.87974C15.85 5.35265 15.2742 7.77905 14.2701 10.0264C14.2142 10.1415 14.1427 10.2746 14.061 10.4263L14.0565 10.4346L14.0565 10.4347C13.9795 10.5778 13.893 10.7384 13.8212 10.8864C13.3327 11.835 12.6285 12.644 11.7716 13.245L8.35853 13.2467C7.50169 12.6456 6.79762 11.8367 6.30923 10.8883C6.2374 10.7403 6.1509 10.5796 6.07385 10.4365L6.06938 10.4281C5.98772 10.2764 5.91621 10.1433 5.86024 10.0282C4.8607 7.79094 4.28551 5.37619 4.16597 2.91475C4.17475 2.66014 4.15254 2.40543 4.0999 2.15656ZM13.3334 19.3642H6.66671V22.562H13.3334V19.3642Z" fill="white"/>
</svg>
